<svg id="Layer_1" data-name="Layer 1" xmlns="http://www.w3.org/2000/svg" viewBox="0 0 76.17 80.53"><path d="M945.79,509.42c.61.47.88.66,1.12.88l5,4.31c-2.26-.22-4.54-.33-6.78-.71-1.29-.22-2.48-1-3.76-1.33-3.42-.93-4.08-2.85-2.56-6,1.08-2.24,1.61-4.75,2.73-7,.48-.95,1.83-1.46,2.78-2.17a12.57,12.57,0,0,1,.83,3.41,8.21,8.21,0,0,1-.72,2.65c7.76-.25,15.79-1.77,23.35-.5,21.68,3.65,35,26.17,28.92,47.32A38,38,0,0,1,947,575.65c-20.81-7.69-30.81-31.3-21.71-51.27a6.53,6.53,0,0,1,1.15-2.19,20.66,20.66,0,0,1,3-2c.17,1.29.91,2.85.44,3.82A34.83,34.83,0,0,0,927,548.31c4.61,18.79,24.77,30,43.34,24a33.85,33.85,0,1,0-24.59-62.9Z" transform="translate(-921.96 -497.46)"/><path d="M956,545.63c4.42,0,8.23-.17,12,.1,1.31.09,2.54,1.28,3.81,2l-3.57,1.91a1,1,0,0,1-.5,0l-15.21-1c-.16-6.61-.39-13.23-.38-19.85,0-.68,1.41-1.37,2.17-2.06.55.9,1.56,1.79,1.59,2.7C956.12,534.52,956,539.67,956,545.63Z" transform="translate(-921.96 -497.46)"/></svg>