<svg id="Layer_1" data-name="Layer 1" xmlns="http://www.w3.org/2000/svg" viewBox="0 0 391.48 408.79"><path d="M902,744.6H821.28a8.74,8.74,0,0,0-1.78-.72c-32.39-5.15-54.86-31.14-54.89-64q-.15-123.76,0-247.53c.06-36.47,28.09-64.37,64.54-64.64,10.91-.08,21.83-.17,32.74.09,3.46.08,5-1,6.39-4.18,6-13.81,16.32-23.24,31.07-26.07,9.68-1.86,19.83-1.73,29.76-1.7,21.07.08,36.31,9.62,44.73,29.23.89,2.06,2,2.69,4.13,2.67,11.18-.11,22.36-.17,33.54,0a76.63,76.63,0,0,1,13.87,1.27c30.13,6.1,51.14,31.62,51.45,62.53.2,19.56,0,39.12,0,58.69v4.49c11.46,0,22.36-.27,33.25.05,22.42.66,42.35,18,44.91,40.17,1.36,11.69.79,23.63.89,35.45q.16,22.56,0,45.12c-.12,11.71-10.79,19.33-21.4,15.51-6.58-2.36-10.49-8.32-10.5-16.28,0-23.68,0-47.37,0-71.06,0-10.39-6.63-17-17-17.06q-56.51-.08-113,0c-10.34,0-17,6.68-17,17.07q-.06,75.86,0,151.71c0,10.63,6.59,17.24,17.18,17.25q56.31.06,112.61,0c10.08,0,16.39-6.06,17.16-16.12.75-9.76,7.82-16.29,17-15.74,8.89.53,15.24,7.81,14.83,17.46-.61,14.79-6.89,26.8-18.37,36.14-7,5.7-15.3,8.26-23.88,10.25H987.42A7.66,7.66,0,0,0,986,744c-25.14-4.7-40.85-23.45-40.87-49q0-75.46,0-150.92c0-28.6,20.79-49.37,49.34-49.45,15.3,0,30.61,0,45.92,0h4.34c.1-1,.21-1.47.21-2q0-30.54,0-61.08a37.33,37.33,0,0,0-.64-5.95c-2.42-14.65-16.82-26.56-31.26-25.59v4.3c0,13.71,0,27.42,0,41.13-.05,10.6-6.61,17.2-17.22,17.2q-74.26.06-148.55,0c-10.56,0-17.06-6.65-17.11-17.31-.05-13.71,0-27.42,0-41.13v-4.41a39.85,39.85,0,0,0-4.27,0c-17.35,1.94-29.22,14.92-29.24,32.62q-.12,123.57,0,247.14c0,19.26,13.76,32.9,33,33,22,.12,43.93,0,65.89,0a38.22,38.22,0,0,1,4.79.12c6.5.83,11.17,4.26,13.43,10.42s1,12-3.68,16.53C907.83,741.86,904.67,743,902,744.6ZM862.17,430.47H980.7V399.61c-6.05,0-11.77.06-17.48,0-8.14-.11-13.8-4.46-16.08-12.32-.77-2.67-1.33-5.41-2.07-8.1-2-7.21-7.35-11.4-14.82-11.5-4.12-.05-8.26.18-12.37,0-15.69-.87-20.26,3.66-23.24,18.19-1.95,9.48-7.88,13.75-17.71,13.78-4.87,0-9.74,0-14.76,0Z" transform="translate(-764.53 -335.81)"/><path d="M1050.31,590.47c-8.11,0-16.23.06-24.35,0-9.84-.09-16.89-6.74-17-15.86s7-16,16.76-16q24.75-.13,49.5,0c9.76.05,16.81,6.92,16.75,16s-7.12,15.77-17,15.86C1066.82,590.53,1058.56,590.47,1050.31,590.47Z" transform="translate(-764.53 -335.81)"/><path d="M1050.45,646.37c-8.12,0-16.23,0-24.35,0-10-.08-17.19-6.85-17.09-16.12.09-9.11,7.15-15.75,17-15.79q24.54-.11,49.1,0c9.82,0,16.87,6.8,16.89,15.92s-7,15.89-16.82,16C1067,646.44,1058.7,646.37,1050.45,646.37Z" transform="translate(-764.53 -335.81)"/></svg>