<svg id="Layer_1" data-name="Layer 1" xmlns="http://www.w3.org/2000/svg" viewBox="0 0 797.8 797.97"><defs><style>.cls-1{fill:#6daa44;}</style></defs><path class="cls-1" d="M882.92,544.63c.55,219.5-179.29,398.51-398.85,398.47-220.25,0-399.49-180-398.94-400,.54-219.3,180-398.73,400.51-398C704.2,145.91,884,324.54,882.92,544.63ZM541.5,694.21q0-42,0-84c0-7,0-7,6.8-7,54.67,0,109.35-.31,164,.13,27.78.22,61-26.9,54.57-66.53-4.89-30.22-28.66-49.21-59.44-49.21h-159c-6.92,0-6.93,0-6.93-6.78q0-83.26,0-166.52a31.73,31.73,0,0,0-.65-7.42,57.64,57.64,0,0,0-61.4-44.15c-30.64,2.91-52.89,27.57-52.89,57.61q0,80,0,160c0,7.23,0,7.24-7.46,7.24-52.34,0-104.68.39-157-.14-36.06-.37-62,28.64-60.76,60.76,1.09,29.16,26.16,55,55.29,55q81.51,0,163,0c6.91,0,6.92,0,6.92,6.84q0,80.26,0,160.52a58.17,58.17,0,0,0,.17,7c5.1,42.47,52.87,65.4,88.83,42.25,16.63-10.71,26.28-25.92,26-46.62C541.27,746.88,541.5,720.54,541.5,694.21Z" transform="translate(-85.12 -145.13)"/></svg>