<?xml version="1.0" encoding="UTF-8" standalone="no"?>
<!-- Created with Inkscape (http://www.inkscape.org/) -->

<svg
   width="190mm"
   height="190mm"
   viewBox="0 0 190 189.99999"
   version="1.1"
   id="svg5"
   inkscape:version="1.1.2 (0a00cf5, 2022-02-04)"
   sodipodi:docname="preference_button.svg"
   xmlns:inkscape="http://www.inkscape.org/namespaces/inkscape"
   xmlns:sodipodi="http://sodipodi.sourceforge.net/DTD/sodipodi-0.dtd"
   xmlns="http://www.w3.org/2000/svg"
   xmlns:svg="http://www.w3.org/2000/svg">
  <sodipodi:namedview
     id="namedview7"
     pagecolor="#ffffff"
     bordercolor="#666666"
     borderopacity="1.0"
     inkscape:pageshadow="2"
     inkscape:pageopacity="0.0"
     inkscape:pagecheckerboard="0"
     inkscape:document-units="mm"
     showgrid="false"
     scale-x="1"
     inkscape:zoom="1.4228635"
     inkscape:cx="346.83581"
     inkscape:cy="663.09947"
     inkscape:window-width="1309"
     inkscape:window-height="744"
     inkscape:window-x="57"
     inkscape:window-y="24"
     inkscape:window-maximized="1"
     inkscape:current-layer="layer1" />
  <defs
     id="defs2" />
  <g
     inkscape:label="Layer 1"
     inkscape:groupmode="layer"
     id="layer1">
    <path
       style="fill:#000000;stroke-width:0.0846667"
       d="m 73.929164,186.27962 c -0.79163,-0.3387 -2.01083,-0.85185 -2.70933,-1.14033 -0.6985,-0.28848 -1.3462,-0.55887 -1.43934,-0.60087 -0.0931,-0.042 -1.06468,-0.44505 -2.159,-0.89567 -1.09431,-0.45062 -2.71356,-1.12091 -3.59833,-1.48953 -0.88477,-0.36863 -1.89442,-0.78884 -2.24367,-0.93381 -0.34925,-0.14497 -0.88265,-0.36837 -1.18533,-0.49645 -0.30268,-0.12808 -1.06469,-0.44231 -1.69334,-0.69827 -0.62865,-0.25597 -1.65735,-0.68015 -2.286,-0.94261 -0.62865,-0.26248 -1.4097,-0.58741 -1.73566,-0.72209 -0.32597,-0.13468 -1.01177,-0.42085 -1.524,-0.63593 -1.10444,-0.46376 -1.66632,-0.6971 -3.47134,-1.4416 -0.74506,-0.30731 -1.65946,-0.68452 -2.032,-0.83823 -0.37253,-0.15372 -1.32503,-0.5493 -2.11666,-0.87906 -3.11968,-1.29956 -4.66874,-1.94214 -4.93184,-2.04584 -0.151337,-0.0597 -0.275162,-0.14045 -0.275162,-0.17953 0,-0.0657 0.325762,-1.53215 0.675562,-3.04106 0.081,-0.34925 0.29013,-1.26365 0.46483,-2.032 0.17469,-0.76835 0.38853,-1.7018 0.4752,-2.07433 0.20494,-0.88091 0.71493,-3.10539 0.92203,-4.02167 0.0895,-0.39582 0.3208,-1.40547 0.51408,-2.24367 0.19328,-0.8382 0.48116,-2.0955 0.63973,-2.794 0.15857,-0.6985 0.36331,-1.59385 0.45499,-1.98966 0.23463,-1.01302 0.73819,-3.21022 0.93141,-4.064 0.3364,-1.4865 0.53357,-2.34856 0.68746,-3.00567 0.0872,-0.37253 0.2184,-0.9498 0.29147,-1.28282 l 0.13284,-0.60548 -2.29435,-2.29435 c -1.2619,-1.26189 -2.34093,-2.29435 -2.39785,-2.29435 -0.0569,0 -0.5219,0.0967 -1.03328,0.21477 -0.511384,0.11813 -1.253639,0.28764 -1.649456,0.37669 -1.122178,0.25245 -2.268996,0.51403 -2.963333,0.67592 -0.34925,0.0814 -1.26365,0.29099 -2.032,0.46568 -0.76835,0.17469 -1.7018,0.38853 -2.074334,0.4752 -1.056917,0.24588 -3.067984,0.70676 -4.783667,1.09629 -0.861483,0.19558 -1.852083,0.42204 -2.201333,0.50325 -0.34925,0.0812 -1.26365,0.29057 -2.032,0.46526 -0.76835,0.17469 -1.7018,0.38822 -2.074333,0.47452 -0.372534,0.0863 -1.191684,0.27272 -1.820334,0.41427 -0.62865,0.14155 -1.3716,0.31309 -1.651,0.38122 -0.420782,0.10258 -1.917849,0.44156 -2.636808,0.59704 -0.192762,0.0417 -0.162401,0.10306 -1.215812,-2.45711 -0.325684,-0.79153 -1.16726,-2.81205 -1.99246,-4.78367 -0.263117,-0.62865 -0.647452,-1.5621 -0.85408,-2.07433 -0.206627,-0.51223 -0.410382,-1.00753 -0.452787,-1.10067 -0.0424,-0.0931 -0.187587,-0.43603 -0.322624,-0.762 -0.135038,-0.32596 -0.3641328,-0.87841 -0.509098,-1.22766 -1.040991,-2.50795 -1.668205,-4.02048 -1.878354,-4.52967 -0.134529,-0.32597 -0.420578,-1.01177 -0.635664,-1.524 -0.475918,-1.13342 -0.71882,-1.71856 -1.440986,-3.47133 -0.306978,-0.74507 -0.668789,-1.62137 -0.804023,-1.94734 -0.735953,-1.77392 -1.646537,-3.96015 -2.115868,-5.08 -0.292742,-0.6985 -0.665027,-1.59385 -0.8273,-1.98966 -0.454356,-1.10827 -0.651351,-1.58618 -0.994654,-2.413 -0.17401196,-0.41911 -0.40308996,-0.97869 -0.50905996,-1.24352 l -0.192674,-0.48152 2.97612596,-1.85317 c 1.636869,-1.01925 3.299975,-2.05349 3.695792,-2.29831 0.395817,-0.24483 1.234017,-0.76606 1.862667,-1.15828 0.62865,-0.39222 1.88595,-1.17336 2.794,-1.73587 0.90805,-0.5625 2.12725,-1.32227 2.709333,-1.68838 0.582084,-0.3661 1.229784,-0.76958 1.439334,-0.89664 0.426894,-0.25881 3.712192,-2.299114 6.35,-3.943594 0.954617,-0.59513 1.767509,-1.09305 1.806428,-1.10648 0.03892,-0.0134 0.07203,-1.52792 0.07358,-3.36553 l 0.0028,-3.3411 -0.412248,-0.26777 c -0.226737,-0.14727 -0.974223,-0.61436 -1.661082,-1.03798 -3.11871,-1.92343 -3.76551,-2.32436 -4.042833,-2.50605 -0.162984,-0.10679 -0.620184,-0.39246 -1.016,-0.63482 -0.395817,-0.24235 -0.853017,-0.5262 -1.016,-0.63076 -0.162984,-0.10456 -1.096434,-0.68615 -2.074334,-1.29242 -1.872152,-1.16069 -4.378187,-2.71705 -7.514167,-4.66663 -1.036107,-0.64412 -2.055282,-1.27479 -2.264832,-1.40149 -0.20955,-0.12669 -0.85725,-0.53192 -1.439334,-0.90051 -0.582083,-0.368593 -1.292831,-0.805973 -1.57944,-0.971953 -0.28660796,-0.16599 -0.55833996,-0.34817 -0.60384896,-0.40485 -0.057,-0.071 0.06014,-0.44552 0.376472,-1.20372 0.52363396,-1.25507 0.68735296,-1.6484 1.63869596,-3.937 0.377466,-0.90805 0.956302,-2.2987 1.286301,-3.09033 0.33,-0.79164 0.74881,-1.80129 0.93069,-2.24367 0.181879,-0.44238 0.418204,-1.01388 0.525166,-1.27 0.106962,-0.25612 0.312766,-0.75142 0.457342,-1.10067 0.144577,-0.34925 0.571156,-1.37795 0.947956,-2.286 0.376799,-0.90805 0.795601,-1.9177 0.930669,-2.24366 0.135069,-0.32597 0.421559,-1.01177 0.636645,-1.524 0.215085,-0.51224 0.500888,-1.19804 0.635116,-1.524 0.553493,-1.34413 1.333219,-3.22796 1.962463,-4.74134 0.367875,-0.88476 0.779673,-1.87536 0.915107,-2.20133 0.135434,-0.32597 0.547232,-1.31657 0.915107,-2.20133 0.367875,-0.88477 0.905011,-2.180171 1.193638,-2.878671 0.95835,-2.319296 1.052515,-2.539454 1.119054,-2.616366 0.06553,-0.07574 0.643254,0.02531 2.106201,0.368419 0.789841,0.18524 2.93306,0.677506 4.064,0.933442 1.401695,0.317208 2.336096,0.530645 2.963334,0.676887 0.34925,0.08143 1.26365,0.290982 2.032,0.465674 0.76835,0.174692 1.7018,0.388229 2.074334,0.474526 0.372533,0.0863 1.191683,0.27241 1.820333,0.413585 0.62865,0.141175 1.2954,0.294415 1.481667,0.340533 0.186266,0.04612 0.853016,0.199251 1.481666,0.340301 0.62865,0.14105 1.295401,0.29363 1.481667,0.33908 0.186267,0.0455 1.100667,0.25606 2.032,0.46804 2.472624,0.56278 2.656017,0.60491 4.233334,0.97255 l 1.439333,0.33547 2.31178,-2.31121 2.31178,-2.311208 -0.31248,-1.392195 c -0.17184,-0.765707 -0.38244,-1.696995 -0.46797,-2.069528 -0.57767,-2.51594 -0.77866,-3.394958 -1.09381,-4.783667 -0.1955,-0.861483 -0.42626,-1.871134 -0.51279,-2.243667 -0.0865,-0.372533 -0.29273,-1.267883 -0.45822,-1.989667 -0.1655,-0.721783 -0.37517,-1.636183 -0.46594,-2.032 -0.0908,-0.395816 -0.30043,-1.310216 -0.46593,-2.032 -0.16549,-0.721783 -0.37658,-1.636183 -0.46909,-2.032 -0.0925,-0.395817 -0.24333,-1.062567 -0.33516,-1.481667 -0.0918,-0.4191 -0.23829,-1.0668 -0.32545,-1.439333 -0.0872,-0.372533 -0.29673,-1.286933 -0.46571,-2.032 -0.16898,-0.745067 -0.40447,-1.773767 -0.52331,-2.286 -0.118843,-0.512234 -0.238381,-1.036142 -0.265642,-1.16424 -0.04551,-0.213843 -0.01578,-0.247208 0.363202,-0.407638 0.22702,-0.0961 0.48896,-0.208516 0.58209,-0.249808 0.0931,-0.04129 0.77894,-0.326185 1.524,-0.633097 1.74355,-0.718209 2.33233,-0.962598 3.47134,-1.440865 1.00177,-0.420641 1.38404,-0.579098 3.47133,-1.438904 0.74507,-0.306911 1.43087,-0.592413 1.524,-0.634449 0.0931,-0.04203 0.77893,-0.327537 1.524,-0.634448 0.74507,-0.306912 1.62137,-0.66897 1.94733,-0.804575 0.32597,-0.135605 1.31657,-0.547542 2.20134,-0.915417 0.88476,-0.367875 2.18016,-0.908671 2.87867,-1.201768 0.6985,-0.293097 1.67005,-0.693054 2.159,-0.888792 0.48895,-0.195737 1.4605,-0.595694 2.159,-0.888792 0.6985,-0.293097 1.9939,-0.833893 2.87866,-1.201768 0.88477,-0.367875 1.87537,-0.779812 2.20134,-0.9154171 0.32596,-0.135604 1.20226,-0.497662 1.94733,-0.804574 0.74507,-0.306911 1.43087,-0.592794 1.524,-0.635294 0.31253,-0.142621 2.45384,-1.02830797 2.58583,-1.06955397 0.13918,-0.04349 0.22455,0.07514 1.22725,1.70539897 0.31505,0.512233 0.91599,1.4837831 1.33544,2.1590001 1.59713,2.571067 3.17275,5.104742 4.2911,6.900334 1.3547,2.175064 3.12993,5.029888 4.49536,7.22918 0.5315,0.856081 1.53997,2.475331 2.241059,3.598333 l 1.274712,2.041821 3.33963,0.0085 3.33962,0.0085 1.18534,-1.909589 c 0.65193,-1.050273 1.636599,-2.635268 2.188155,-3.522212 0.55156,-0.886943 1.30884,-2.107924 1.68284,-2.713291 0.374,-0.605366 0.76673,-1.234016 0.87273,-1.397 0.10602,-0.162983 0.73358,-1.172633 1.3946,-2.243667 0.66102,-1.071033 1.28874,-2.080683 1.39493,-2.243666 0.10619,-0.162984 0.54461,-0.867834 0.97425,-1.566334 0.42966,-0.6985 0.86847,-1.40335 0.97515,-1.566333 0.10668,-0.162983 0.54659,-0.867834 0.97758,-1.566334 1.72143,-2.7898701 2.99218,-4.82980607 3.0524,-4.90000307 0.0499,-0.05815 1.77342,0.601465 2.74336,1.04991797 0.0931,0.04306 0.49318,0.209092 0.889,0.368958 0.39581,0.159866 1.23401,0.506724 1.86266,0.770796 0.62865,0.264072 1.20015,0.5018391 1.27,0.5283711 0.0699,0.02653 0.8509,0.349097 1.73567,0.716811 2.19201,0.911015 2.78636,1.157632 3.429,1.422816 0.99713,0.411464 4.29705,1.782817 6.56167,2.726847 0.79163,0.33 1.78223,0.740926 2.20133,0.913168 0.88318,0.362969 2.47752,1.024723 4.40267,1.827385 0.74506,0.310645 1.56421,0.650354 1.82033,0.754909 0.92878,0.379157 2.35262,0.968724 3.47134,1.437372 0.62865,0.263352 1.69545,0.706998 2.37066,0.985882 0.67522,0.278883 1.30387,0.540758 1.397,0.581945 0.0931,0.04119 0.35466,0.15333 0.58118,0.249209 0.46852,0.198312 0.45628,0.08404 0.15026,1.40295 -0.0972,0.4191 -0.31223,1.35255 -0.47773,2.074334 -0.16552,0.721783 -0.37594,1.636183 -0.46762,2.032 -0.18385,0.793798 -0.55782,2.433302 -1.10081,4.826 -0.1955,0.861484 -0.42625,1.871134 -0.51278,2.243667 -0.26051,1.12154 -0.71915,3.123579 -1.09589,4.783667 -0.1955,0.861483 -0.42625,1.871133 -0.51278,2.243667 -0.1546,0.665601 -0.59993,2.604953 -0.92348,4.021666 -0.0904,0.395817 -0.27975,1.234017 -0.42078,1.862667 -0.14103,0.62865 -0.29976,1.305329 -0.35275,1.50373 l -0.0963,0.360731 2.3219,2.321238 2.32189,2.32124 1.09719,-0.25087 c 0.60346,-0.13798 1.402,-0.32149 1.77453,-0.4078 0.37254,-0.0863 1.30599,-0.29985 2.07434,-0.47454 0.76835,-0.1747 1.68275,-0.38406 2.032,-0.46527 0.34925,-0.0812 1.33985,-0.30766 2.20133,-0.50325 1.71568,-0.389516 3.72675,-0.850398 4.78367,-1.096285 0.37253,-0.08667 1.30598,-0.300509 2.07433,-0.475201 0.76835,-0.174692 1.7018,-0.388934 2.07433,-0.476092 0.37254,-0.08716 1.02024,-0.234729 1.43934,-0.327935 0.4191,-0.09321 1.0668,-0.239863 1.43933,-0.325903 0.37253,-0.08604 1.30598,-0.300297 2.07433,-0.476126 0.76835,-0.175829 1.7018,-0.39008 2.07434,-0.476113 1.47684,-0.341063 1.91913,-0.425582 2.02151,-0.386295 0.0587,0.02254 0.22591,0.340106 0.3715,0.705698 0.14557,0.36559 0.4798,1.17906 0.74274,1.80771 0.68113,1.628572 1.04847,2.513322 1.26551,3.048002 0.30251,0.74528 1.05964,2.56673 1.14379,2.75167 0.0424,0.0931 0.32815,0.77893 0.63506,1.524 0.30691,0.74506 0.66897,1.62136 0.80457,1.94733 0.13561,0.32597 0.54755,1.31657 0.91542,2.20133 0.36788,0.88477 0.90868,2.18017 1.20178,2.87867 0.29309,0.6985 0.69304,1.67005 0.88878,2.159 0.19574,0.48895 0.5957,1.4605 0.88879,2.159 0.2931,0.6985 0.8339,1.9939 1.20178,2.87867 0.36787,0.88476 0.7798,1.87536 0.91541,2.20133 0.13561,0.32597 0.49767,1.20227 0.80457,1.94733 0.30691,0.74507 0.59233,1.43087 0.63426,1.524 0.0419,0.0931 0.30485,0.72179 0.58426,1.397 0.27942,0.67522 0.75391,1.81822 1.05444,2.54 0.50639,1.21622 0.53616,1.32221 0.40645,1.44716 -0.077,0.0742 -0.69241,0.4709 -1.36762,0.88166 -0.67522,0.41077 -1.41817,0.869673 -1.651,1.019793 -0.23284,0.15013 -1.14724,0.72101 -2.032,1.26863 -0.88477,0.54762 -2.38972,1.48085 -3.34434,2.07384 -3.87436,2.40667 -7.68693,4.77296 -8.08566,5.0184 -0.23284,0.14332 -0.61384,0.38232 -0.84667,0.53111 -0.23283,0.14879 -1.29963,0.8132 -2.37067,1.47646 -1.07103,0.66327 -2.37343,1.47268 -2.89422,1.79869 l -0.94689,0.59274 0.002,3.3546 0.002,3.35459 0.69109,0.41637 c 0.3801,0.22901 1.68169,1.03264 2.89242,1.78585 1.21074,0.75321 2.77284,1.722354 3.47134,2.153644 0.6985,0.4313 1.40335,0.87171 1.56633,0.97868 0.16298,0.10698 1.02023,0.642 1.905,1.18893 0.88477,0.54694 2.38972,1.48033 3.34433,2.0742 1.46581,0.91188 3.85041,2.39136 5.75734,3.57205 0.25611,0.15857 0.92286,0.57523 1.48166,0.9259 0.5588,0.35068 1.36594,0.85616 1.79363,1.12331 0.59116,0.36925 0.76579,0.51946 0.7282,0.6264 -0.0272,0.0774 -0.343,0.84552 -0.70178,1.70701 -0.35879,0.86148 -0.88845,2.13783 -1.17701,2.83633 -0.28856,0.6985 -0.55989,1.3462 -0.60296,1.43933 -0.043,0.0931 -0.2072,0.49319 -0.36477,0.889 -0.15757,0.39582 -0.526,1.29117 -0.81875,1.98967 -0.29274,0.6985 -0.83324,1.9939 -1.20112,2.87867 -0.36787,0.88476 -0.77981,1.87536 -0.91542,2.20133 -0.1356,0.32597 -0.49766,1.20227 -0.80457,1.94733 -0.30691,0.74507 -0.59241,1.43087 -0.63445,1.524 -0.042,0.0931 -0.32754,0.77894 -0.63445,1.524 -0.71821,1.74355 -0.9626,2.33233 -1.44086,3.47134 -0.42064,1.00176 -0.5791,1.38404 -1.4389,3.47133 -0.30691,0.74507 -0.59313,1.43087 -0.63603,1.524 -0.0677,0.14684 -0.38726,0.91851 -1.1397,2.75167 -0.57162,1.39265 -1.00949,2.44645 -1.43316,3.4491 -0.26046,0.61641 -0.47356,1.15616 -0.47356,1.19944 0,0.1963 -0.10523,0.18169 -2.30717,-0.32052 -1.8544,-0.42294 -3.0656,-0.70025 -3.91583,-0.89654 -0.51224,-0.11826 -1.42664,-0.32781 -2.032,-0.46567 -0.60537,-0.13785 -1.51977,-0.34813 -2.032,-0.46727 -0.51224,-0.11913 -1.17899,-0.2715 -1.48167,-0.33859 -0.30268,-0.0671 -0.96943,-0.21904 -1.48167,-0.33767 -0.51223,-0.11864 -1.54093,-0.35396 -2.286,-0.52294 -0.74507,-0.16898 -1.64042,-0.37379 -1.98967,-0.45513 -0.34925,-0.0813 -1.26365,-0.29089 -2.032,-0.46567 -0.76835,-0.17478 -1.68275,-0.3844 -2.032,-0.46583 -0.69433,-0.16189 -1.84115,-0.42347 -2.96333,-0.67592 -0.39582,-0.0891 -1.13807,-0.25856 -1.64946,-0.37669 -0.51138,-0.11812 -0.97598,-0.21477 -1.03243,-0.21477 -0.0565,0 -1.13457,1.03325 -2.3958,2.29613 l -2.29314,2.29612 0.17413,0.77304 c 0.0958,0.42517 0.24978,1.09689 0.34225,1.49271 0.0925,0.39582 0.24005,1.04352 0.32798,1.43933 0.0879,0.39582 0.23884,1.06257 0.33536,1.48167 0.0965,0.4191 0.3109,1.35255 0.47641,2.07433 0.16551,0.72179 0.37544,1.63619 0.46651,2.032 0.63252,2.74907 1.40922,6.13942 1.6099,7.02734 0.14497,0.6414 0.41838,1.83754 0.92896,4.064 0.0908,0.39581 0.30045,1.31021 0.46596,2.032 0.16552,0.72178 0.37551,1.63618 0.46666,2.032 0.48361,2.1001 0.59138,2.58783 0.59138,2.67635 0,0.0534 -0.12383,0.14591 -0.27517,0.20557 -0.26309,0.1037 -1.81215,0.74628 -4.93183,2.04584 -0.79164,0.32976 -1.74414,0.72534 -2.11667,0.87906 -2.01093,0.82976 -3.53436,1.46102 -4.78367,1.9822 -0.76835,0.32054 -2.13995,0.89163 -3.048,1.2691 -0.90805,0.37746 -1.9177,0.79725 -2.24366,0.93286 -0.32597,0.1356 -1.20227,0.49771 -1.94734,0.80469 -0.74506,0.30698 -1.62136,0.66805 -1.94733,0.80238 -0.32597,0.13433 -1.01177,0.42021 -1.524,0.6353 -0.51223,0.21509 -1.19803,0.50157 -1.524,0.63664 -0.32597,0.13507 -1.33562,0.55387 -2.24367,0.93068 -0.90805,0.3768 -1.9177,0.79573 -2.24366,0.93096 -0.32597,0.13524 -1.20227,0.49699 -1.94734,0.80388 -0.74506,0.3069 -1.43086,0.59262 -1.524,0.63493 -0.62885,0.28571 -2.64746,1.10156 -2.72552,1.10156 -0.0961,0 -0.26636,-0.26433 -2.86382,-4.445 -0.78116,-1.2573 -1.84709,-2.9718 -2.36872,-3.81 -0.87819,-1.41114 -1.90102,-3.05546 -4.31861,-6.94267 -3.325725,-5.34738 -4.204475,-6.76292 -4.572725,-7.366 -0.22748,-0.37253 -0.48532,-0.77203 -0.57297,-0.88777 l -0.15936,-0.21044 -3.29901,-0.001 -3.299,-0.001 -0.32621,0.50822 c -0.17943,0.27952 -1.059182,1.68932 -1.955031,3.13289 -0.89585,1.44356 -2.11445,3.40571 -2.70803,4.36033 -3.66653,5.89671 -4.75992,7.65632 -5.15585,8.29734 -0.24448,0.39581 -0.74299,1.19591 -1.1078,1.778 -0.57438,0.91648 -1.96408,3.1546 -3.0969,4.9876 -0.2157,0.349 -0.406,0.56338 -0.508,0.57225 -0.0897,0.008 -0.81081,-0.26293 -1.60244,-0.60164 z m -2.07773,-12.69191 c 0.34033,-0.54826 2.61402,-4.17369 5.05273,-8.05664 0.90664,-1.44356 2.12554,-3.38666 2.70866,-4.318 0.58313,-0.93133 1.76707,-2.81728 2.63097,-4.191 0.86391,-1.37371 1.67392,-2.66911 1.80003,-2.87866 0.85353,-1.41831 1.00682,-1.60874 1.29361,-1.60691 0.25428,0.002 1.45412,0.0979 4.382061,0.35164 1.37952,0.11955 6.70236,0.12059 8.00101,0.002 1.94009,-0.17781 4.701115,-0.38073 4.726455,-0.34737 0.0271,0.0357 2.40184,3.85228 4.92093,7.90874 0.7808,1.2573 1.50708,2.41935 1.61397,2.58233 0.10688,0.16298 0.83121,1.32503 1.60961,2.58233 0.7784,1.2573 1.53753,2.4765 1.68697,2.70934 0.14943,0.23283 1.02445,1.63301 1.9445,3.1115 0.92004,1.47849 1.68574,2.68816 1.70156,2.68816 0.0254,0 0.60065,-0.23695 2.878,-1.18537 0.32596,-0.13576 1.20226,-0.49799 1.94733,-0.80496 0.74507,-0.30699 1.62137,-0.66894 1.94733,-0.80434 0.32597,-0.1354 1.20227,-0.49735 1.94734,-0.80433 0.74506,-0.30698 1.62136,-0.66947 1.94733,-0.80555 0.32597,-0.13607 1.52612,-0.63158 2.667,-1.10113 5.20916,-2.14395 5.60488,-2.31379 5.64706,-2.42369 0.0391,-0.10191 -0.0591,-0.60781 -0.39992,-2.06129 -0.28053,-1.19627 -0.69758,-2.98887 -1.26061,-5.41867 -0.0917,-0.39582 -0.30389,-1.31022 -0.4715,-2.032 -0.16761,-0.72178 -0.37938,-1.63618 -0.47062,-2.032 -0.27495,-1.19288 -0.49004,-2.11764 -0.67937,-2.921 -0.21688,-0.92023 -0.34119,-1.45147 -0.57458,-2.45533 -0.0974,-0.4191 -0.25332,-1.08585 -0.3464,-1.48167 -0.0931,-0.39582 -0.30475,-1.31022 -0.47039,-2.032 -0.16564,-0.72178 -0.37661,-1.63618 -0.46881,-2.032 -0.33293,-1.42923 -0.52835,-2.37524 -0.49577,-2.39996 2.71535,-2.0597 7.99778,-7.26707 11.30738,-11.14671 1.00339,-1.1762 0.89164,-1.11083 1.5952,-0.93312 0.32597,0.0823 0.87842,0.21406 1.22767,0.29271 0.34925,0.0786 0.9398,0.21505 1.31233,0.30312 0.37253,0.0881 2.33468,0.54444 4.36033,1.01413 2.02565,0.4697 4.00685,0.92997 4.40267,1.02283 0.39582,0.0928 0.87207,0.2043 1.05833,0.24766 0.18627,0.0434 0.66252,0.15492 1.05834,0.24788 0.39581,0.093 1.48166,0.34361 2.413,0.55699 0.93133,0.21338 2.01718,0.46451 2.413,0.55806 0.39581,0.0936 0.94826,0.22249 1.22766,0.28652 0.2794,0.064 0.83185,0.19296 1.22767,0.28652 0.39582,0.0935 1.06257,0.25071 1.48167,0.34925 0.4191,0.0985 0.99303,0.23426 1.27541,0.30163 0.74432,0.17758 0.75523,0.17388 0.95005,-0.32201 0.24504,-0.62371 1.02458,-2.52675 1.11849,-2.7305 0.11222,-0.24351 0.90369,-2.16003 1.24124,-3.00567 0.15799,-0.39582 0.32254,-0.79587 0.36564,-0.889 0.0431,-0.0931 0.23414,-0.55033 0.42453,-1.016 0.19039,-0.46567 0.41943,-1.01812 0.50897,-1.22767 0.0895,-0.20955 0.31863,-0.762 0.50908,-1.22766 0.19045,-0.46567 0.45671,-1.11337 0.59169,-1.43934 0.13498,-0.32596 0.49658,-1.20226 0.80356,-1.94733 0.66102,-1.60436 0.88239,-2.1375 1.5629,-3.76402 0.28166,-0.67321 0.5121,-1.26404 0.5121,-1.31295 0,-0.0489 -0.16192,-0.18788 -0.35983,-0.30882 -0.19791,-0.12095 -1.46473,-0.91642 -2.81517,-1.76773 -1.35043,-0.85131 -2.91253,-1.83075 -3.47133,-2.17653 -0.5588,-0.34578 -1.8542,-1.15752 -2.87867,-1.80386 -1.02446,-0.64634 -2.35796,-1.48174 -2.96333,-1.85646 -0.60537,-0.37471 -1.72932,-1.07873 -2.49767,-1.56449 -0.76835,-0.48576 -2.17805,-1.36928 -3.13266,-1.96339 -0.95462,-0.5941 -1.98332,-1.23789 -2.286,-1.43063 -0.30269,-0.19275 -0.69767,-0.43948 -0.87774,-0.54831 l -0.3274,-0.19786 0.0567,-0.77014 c 0.0312,-0.42358 0.0924,-1.09399 0.13617,-1.489814 0.17917,-1.62223 0.33496,-4.60822 0.33496,-6.41987 0,-1.85093 -0.16561,-5.06938 -0.33404,-6.4918 -0.0441,-0.37253 -0.10568,-1.00912 -0.13681,-1.41463 l -0.0566,-0.73731 0.87756,-0.55857 c 0.48265,-0.30721 1.8872,-1.18571 3.12122,-1.95222 1.23401,-0.76651 2.41511,-1.50264 2.62466,-1.63585 0.20955,-0.13321 1.4097,-0.88117 2.667,-1.66214 1.2573,-0.78097 3.29565,-2.04704 4.52967,-2.813493 1.23402,-0.76646 2.37702,-1.48081 2.54,-1.58745 0.16298,-0.10664 1.32503,-0.83039 2.58233,-1.60832 1.2573,-0.77794 2.37173,-1.46855 2.4765,-1.53468 0.10478,-0.0661 0.1905,-0.15941 0.1905,-0.20727 0,-0.0479 -0.14686,-0.43752 -0.32636,-0.86589 -0.40323,-0.96229 -1.19839,-2.8812 -1.63839,-3.95385 -0.18147,-0.44238 -0.44068,-1.07103 -0.57603,-1.397 -0.13534,-0.32596 -0.49719,-1.20226 -0.8041,-1.94733 -0.30691,-0.74506 -0.5931,-1.43086 -0.63598,-1.524 -0.0429,-0.0931 -0.24716,-0.58843 -0.45396,-1.10066 -0.2068,-0.51224 -0.55298,-1.35044 -0.7693,-1.86267 -0.21631,-0.51223 -0.49201,-1.17898 -0.61266,-1.48167 -0.56572,-1.41921 -1.98632,-4.78897 -2.04265,-4.8453 -0.0347,-0.0347 -0.29036,-0.008 -0.56803,0.0584 -0.98829,0.23807 -1.96706,0.46659 -3.63754,0.84932 -0.93133,0.21337 -2.01718,0.46402 -2.413,0.55699 -0.39581,0.093 -0.87206,0.20451 -1.05833,0.24787 -0.18627,0.0434 -0.66252,0.15469 -1.05833,0.24739 -0.39582,0.0927 -1.13877,0.26649 -1.651,0.3862 -0.51224,0.11971 -1.08374,0.25341 -1.27,0.29712 -1.33919,0.31425 -1.97859,0.46242 -3.47134,0.80443 -0.93133,0.21337 -2.01718,0.46402 -2.413,0.55699 -0.39581,0.093 -0.87206,0.20451 -1.05833,0.24787 -0.18627,0.0434 -0.66252,0.15425 -1.05833,0.24642 -0.39582,0.0922 -1.11972,0.26186 -1.60867,0.37712 -0.48895,0.11525 -1.17475,0.27449 -1.524,0.35385 -0.34925,0.0794 -0.91841,0.21578 -1.26478,0.30313 -0.34638,0.0874 -0.67316,0.15882 -0.72618,0.15882 -0.053,0 -0.33559,-0.29528 -0.62793,-0.65617 -2.65082,-3.27234 -7.11917,-7.70708 -11.47303,-11.38673 l -0.24893,-0.21038 0.10759,-0.49853 c 0.0927,-0.42961 0.30131,-1.336792 0.6013,-2.615194 0.25581,-1.090131 0.45012,-1.923871 0.55252,-2.370667 0.064,-0.2794 0.19314,-0.83185 0.28691,-1.227666 0.0938,-0.395817 0.42116,-1.805517 0.72753,-3.132667 0.30636,-1.32715 0.63303,-2.73685 0.72593,-3.132667 0.0929,-0.395817 0.20437,-0.872067 0.24773,-1.058334 0.0434,-0.186266 0.15461,-0.662516 0.24721,-1.058333 0.0926,-0.395817 0.47666,-2.053167 0.85346,-3.683 0.72609,-3.140619 0.92626,-3.994025 1.19039,-5.074953 0.0904,-0.369758 0.16428,-0.755782 0.16428,-0.85783 0,-0.191184 -0.16326,-0.269139 -3.09034,-1.475551 -0.4191,-0.172735 -1.2954,-0.535033 -1.94733,-0.805106 -0.65193,-0.270074 -1.54728,-0.639515 -1.98967,-0.820982 -0.44238,-0.181465 -1.07103,-0.440373 -1.397,-0.575351 -0.32596,-0.134977 -1.20226,-0.496578 -1.94733,-0.803555 -0.74507,-0.306979 -1.62137,-0.669231 -1.94733,-0.805006 -0.32597,-0.135775 -1.20227,-0.497973 -1.94734,-0.804885 -0.74506,-0.306911 -1.43086,-0.593339 -1.524,-0.636504 -0.0931,-0.04317 -0.49318,-0.207995 -0.889,-0.366286 -0.39581,-0.15829 -1.05088,-0.425918 -1.4557,-0.594729 -0.40483,-0.168811 -0.78583,-0.306891 -0.84667,-0.306843 -0.0608,4.7e-5 -0.21607,0.181022 -0.34495,0.402167 -0.12888,0.221144 -0.66228,1.078582 -1.18533,1.905417 -0.52306,0.826835 -1.75111,2.779461 -2.72901,4.339169 -0.9779,1.559707 -2.20425,3.512105 -2.72522,4.338663 -0.52097,0.826557 -1.14594,1.826682 -1.38882,2.222498 -0.24288,0.395817 -0.56458,0.910167 -0.7149,1.143 -0.21473,0.3326 -3.08387,4.903543 -4.26225,6.790372 -0.12218,0.195639 -0.26025,0.370341 -0.30681,0.388228 -0.10248,0.03936 -1.32435,-0.05122 -3.428995,-0.2542 -2.17479,-0.209748 -8.39387,-0.212029 -10.329341,-0.0038 -0.72178,0.07766 -1.69333,0.163466 -2.159,0.190685 -0.46567,0.02722 -0.96541,0.06786 -1.11055,0.09031 l -0.26388,0.04083 -1.80399,-2.901553 c -0.99219,-1.595898 -1.9263,-3.092097 -2.07581,-3.32493 -0.27152,-0.422873 -3.14272,-5.032697 -5.77439,-9.271 -0.76625,-1.234389 -1.48085,-2.377389 -1.58801,-2.540373 -0.10716,-0.162983 -0.54558,-0.867833 -0.97428,-1.566333 -1.20156,-1.957796 -1.21871,-1.983286 -1.3364,-1.986576 -0.0608,-0.0017 -0.44185,0.135028 -0.84667,0.303839 -0.40482,0.168811 -1.04084,0.431927 -1.41337,0.584702 -0.37254,0.152776 -1.15359,0.474677 -1.73567,0.715336 -0.58208,0.240658 -1.36313,0.563488 -1.73567,0.717397 -0.37253,0.153911 -1.09643,0.453267 -1.60866,0.665237 -1.1343,0.469387 -2.72957,1.12772 -3.97934,1.642176 -0.51223,0.210856 -1.17898,0.48748 -1.48167,0.614719 -0.30268,0.12724 -0.98848,0.409696 -1.524,0.62768 -0.53551,0.217985 -1.04986,0.431417 -1.143,0.474294 -0.0931,0.04288 -0.77893,0.328835 -1.524,0.635462 -1.96006,0.806652 -1.98966,0.820636 -1.98966,0.940006 0,0.102522 0.15575,0.843215 0.33666,1.601062 0.17671,0.740223 0.43583,1.856511 0.8058,3.471333 0.21338,0.931334 0.46475,2.017184 0.55859,2.413 0.0939,0.395817 0.22303,0.948267 0.28706,1.227667 0.064,0.2794 0.19666,0.8509 0.29473,1.27 0.19057,0.814376 0.23994,1.026145 0.50825,2.180167 0.0947,0.407458 0.24661,1.055158 0.33751,1.439333 0.0909,0.384175 0.41589,1.78435 0.72219,3.1115 0.56695,2.456418 0.65723,2.845685 0.97205,4.191001 0.26965,1.152321 0.31973,1.365274 0.54759,2.328334 0.38815,1.64058 0.41029,1.48853 -0.30211,2.07433 -3.45687,2.84257 -7.53324,6.91789 -10.94597,10.94317 -0.36519,0.43074 -0.69115,0.78317 -0.72436,0.78317 -0.0519,0 -1.24114,-0.2749 -4.78566,-1.10621 -0.419099,-0.0983 -0.990599,-0.23048 -1.269999,-0.29374 -0.2794,-0.0633 -0.83185,-0.19181 -1.227667,-0.28566 -0.395816,-0.0938 -1.481666,-0.34522 -2.413,-0.55859 -0.931333,-0.21338 -2.017183,-0.46486 -2.413,-0.55885 -0.940316,-0.22329 -2.032675,-0.47903 -2.667,-0.6244 -0.2794,-0.064 -0.8509,-0.19665 -1.27,-0.29473 -0.4191,-0.0981 -0.9144,-0.21379 -1.100667,-0.25716 -0.186266,-0.0434 -0.662516,-0.15484 -1.058333,-0.24774 -0.395817,-0.0929 -1.805517,-0.4191 -3.132667,-0.72491 -1.32715,-0.30581 -2.64019,-0.61162 -2.917865,-0.67958 -0.277676,-0.068 -0.531139,-0.0955 -0.56325,-0.0612 -0.03211,0.0343 -0.311353,0.672 -0.620536,1.41707 -0.309185,0.74506 -0.673241,1.62136 -0.809016,1.94733 -0.135775,0.32597 -0.497973,1.20227 -0.804884,1.94733 -0.306912,0.74507 -0.593339,1.43087 -0.636505,1.524 -0.04317,0.0931 -0.208093,0.49319 -0.366503,0.889 -0.353624,0.8836 -1.577347,3.8452 -2.273958,5.50333 -0.283668,0.67522 -0.600463,1.43722 -0.703988,1.69333 -0.392821,0.97183 -1.303333,3.19329 -1.485161,3.62349 -0.124424,0.29438 -0.160908,0.47714 -0.106178,0.53187 0.04586,0.0459 0.528835,0.35839 1.073278,0.69451 1.011327,0.62436 5.315004,3.32087 9.410233,5.896063 1.2573,0.79063 2.72415,1.70796 3.259666,2.03851 0.535517,0.33056 1.488017,0.92601 2.116667,1.32322 0.62865,0.39722 2.0955,1.31638 3.259667,2.0426 1.164167,0.72621 2.187843,1.38048 2.274834,1.4539 0.137275,0.11587 0.151165,0.2118 0.105156,0.72618 -0.02916,0.32596 -0.110901,1.31656 -0.181652,2.20133 -0.07075,0.88477 -0.16537,2.02777 -0.210265,2.54 -0.104601,1.1935 -0.10457,5.29537 5.1e-5,6.56167 0.04424,0.53551 0.141507,1.71661 0.216141,2.62466 0.07463,0.908054 0.156584,1.898874 0.182113,2.201834 l 0.04642,0.55083 -0.412064,0.26401 c -0.226636,0.1452 -1.288364,0.80817 -2.359398,1.47326 -1.071033,0.66508 -2.937933,1.82611 -4.148666,2.58005 -1.210734,0.75396 -3.077634,1.914 -4.148667,2.57786 -1.071034,0.66386 -2.080684,1.29432 -2.243667,1.401 -0.162983,0.10669 -1.782234,1.11711 -3.598334,2.24538 -3.494843,2.1712 -4.633786,2.88305 -4.692983,2.93314 -0.01997,0.0169 0.05242,0.24934 0.160881,0.51653 0.192979,0.47539 1.038426,2.52595 1.526798,3.70312 0.381065,0.91851 1.587946,3.82693 1.862066,4.48734 0.135304,0.32597 0.610505,1.47819 1.056005,2.56051 1.09855,2.66889 2.36849,5.74271 2.754931,6.66815 0.175004,0.4191 0.344257,0.84773 0.376118,0.9525 0.06805,0.2238 0.161101,0.23128 0.845442,0.068 0.282375,-0.0674 0.846784,-0.20071 1.254243,-0.29633 0.407458,-0.0956 1.074208,-0.25279 1.481666,-0.34925 0.407459,-0.0965 0.969434,-0.22779 1.248834,-0.29183 0.2794,-0.064 0.83185,-0.19296 1.227666,-0.28652 0.395817,-0.0935 1.481667,-0.34467 2.413001,-0.55805 0.931333,-0.21338 2.017183,-0.46402 2.413,-0.55699 0.395816,-0.093 0.872066,-0.20451 1.058333,-0.24788 0.186267,-0.0434 0.662517,-0.15461 1.058333,-0.24721 0.395817,-0.0926 2.053167,-0.47665 3.683001,-0.85345 1.629833,-0.3768 3.268129,-0.75717 3.640669,-0.84525 1.53503,-0.36294 2.14861,-0.50602 2.75166,-0.64164 0.34925,-0.0785 0.91955,-0.21458 1.26733,-0.3023 l 0.63233,-0.15949 0.21434,0.27446 c 0.50267,0.64366 2.32412,2.72781 3.27454,3.74681 2.2485,2.41078 6.20171,6.14426 8.44404,7.9747 0.39275,0.32061 0.4081,0.1096 -0.19298,2.65271 -0.0936,0.39581 -0.34469,1.48166 -0.55806,2.413 -0.21338,0.93133 -0.46402,2.01718 -0.55699,2.41301 -0.093,0.39581 -0.20451,0.87206 -0.24788,1.05833 -0.32548,1.39805 -0.45548,1.95381 -0.60404,2.58233 -0.0936,0.39582 -0.22249,0.94827 -0.28652,1.22767 -0.064,0.2794 -0.19296,0.83185 -0.28651,1.22767 -0.0936,0.39581 -0.34469,1.48166 -0.55806,2.413 -0.21338,0.93133 -0.46402,2.01718 -0.55699,2.413 -0.29877,1.27202 -0.32466,1.38274 -0.53461,2.286 -0.85556,3.6808 -0.9961,4.33176 -0.95712,4.43335 0.0242,0.0632 0.28545,0.21354 0.58046,0.33416 3.07973,1.25912 4.58594,1.87919 5.48939,2.25982 0.34925,0.14714 1.0541,0.43709 1.56633,0.64436 0.51224,0.20725 1.00754,0.4119 1.10067,0.45478 0.0931,0.0429 0.77893,0.32907 1.524,0.63598 0.74507,0.3069 1.62137,0.66881 1.94733,0.80421 0.32597,0.1354 1.20227,0.49735 1.94734,0.80434 1.63394,0.6732 2.20532,0.91103 3.64067,1.51534 0.60536,0.25488 1.13723,0.45382 1.18193,0.44212 0.0447,-0.0117 0.21615,-0.2386 0.381,-0.50417 z m 19.815401,-45.57295 c -0.20955,-0.0186 -0.8382,-0.072 -1.397,-0.11867 -5.415681,-0.45255 -10.932801,-2.44229 -15.875001,-5.7253 -2.90709,-1.93112 -6.02977,-4.89096 -8.20633,-7.77838 -3.17362,-4.21014 -5.37535,-9.13469 -6.35942,-14.22401 -0.46314,-2.395234 -0.53785,-3.302714 -0.54013,-6.561664 -0.002,-3.27843 0.0755,-4.21576 0.55517,-6.68867 2.02743,-10.452193 9.06941,-19.634423 18.61471,-24.272213 3.50035,-1.70073 6.42096,-2.62333 10.11766,-3.1961 2.149111,-0.33299 5.803061,-0.43609 8.212671,-0.23172 7.186365,0.60949 14.146155,3.59916 19.684995,8.45593 5.79313,5.07973 9.8487,12.230743 11.17249,19.699903 0.67044,3.78283 0.68662,8.76854 0.0397,12.24095 -1.14208,6.130514 -3.65765,11.469764 -7.65677,16.251344 -3.96345,4.73892 -9.52476,8.49357 -15.55662,10.50284 -2.23957,0.74602 -4.811785,1.29127 -7.218155,1.53007 -0.92514,0.0918 -4.92355,0.17459 -5.588,0.11569 z m 3.59873,-10.27524 c 3.31546,-0.18527 6.362705,-0.99962 9.353825,-2.49973 4.65904,-2.33659 8.39313,-6.07768 10.73782,-10.75792 1.37516,-2.74498 2.10736,-5.246154 2.42465,-8.282584 0.85122,-8.14604 -2.26089,-15.93385 -8.46203,-21.175553 -2.74187,-2.31766 -6.47306,-4.21558 -9.821325,-4.99577 -1.97469,-0.46012 -3.57691,-0.63576 -5.79967,-0.63576 -4.14845,0 -7.266211,0.72868 -10.924411,2.55324 -4.92499,2.45639 -8.87317,6.571713 -11.1648,11.637463 -0.97422,2.15356 -1.57586,4.24772 -1.93115,6.72183 -0.23076,1.60691 -0.20927,5.20223 0.0407,6.81566 0.30891,1.99359 0.63362,3.258554 1.2714,4.953004 0.96495,2.56367 2.36251,4.98473 4.03192,6.98465 2.8967,3.47022 6.55478,5.99299 10.84463,7.47895 1.79843,0.62296 4.154621,1.08531 6.095371,1.19608 1.57905,0.0901 1.79791,0.0905 3.30303,0.006 z"
       id="path39" />
  </g>
</svg>
