<svg id="Layer_1" data-name="Layer 1" xmlns="http://www.w3.org/2000/svg" viewBox="0 0 60.09 137.31"><path d="M927.41,531.16c-.14-4.85,2.18-7.43,6.75-9,7.92-2.74,15.81-4.92,24.34-4.37,10.15.66,18.15,8,17.31,18-.76,9-3.28,17.89-5.25,26.78-1.47,6.64-3.58,13.16-4.89,19.83-2.23,11.27,1.33,14.89,12.72,13.38,2.1-.27,4.16-.9,6.49-1.42.44,4.57-.64,7.43-5.54,9-7.77,2.48-15.26,5.37-23.72,4.89-12.91-.73-20.71-8.56-19-21.4,1.36-10,4.55-19.71,6.72-29.59,1.42-6.47,3-13,3.55-19.52.49-5.68-2.07-7.83-7.84-7.72C935.29,530.05,931.52,530.72,927.41,531.16Z" transform="translate(-927.4 -470.94)"/><path d="M970.61,502.28c-9.77.05-16.78-6.19-16.87-15-.1-9.32,7.13-16.28,16.94-16.31,9.1,0,16.7,7,16.81,15.58C987.6,495.53,980.43,502.22,970.61,502.28Z" transform="translate(-927.4 -470.94)"/></svg>