<svg id="Layer_1" data-name="Layer 1" xmlns="http://www.w3.org/2000/svg" viewBox="0 0 92.14 92.06"><path d="M959.69,586A46.18,46.18,0,0,1,914,539.46c.2-25.29,21.23-45.8,46.69-45.53a46,46,0,0,1-1,92.05Zm42.43-46a42.06,42.06,0,1,0-42,42A42.08,42.08,0,0,0,1002.12,540Z" transform="translate(-913.99 -493.93)"/><path d="M952.37,528.13l-5-1.36c1.23-6.86,4.38-10.49,10.26-11.52,5.43-1,10.48.11,13.77,4.91,3.39,5,2.65,10.05-.49,15s-6.18,9.9-9.26,14.86l1.21,1.14h-6.62c1.27-3.8,2-7.23,3.55-10.27s3.89-5.39,5.69-8.19c3-4.64,2.26-9.39-1.52-11.31-4.16-2.1-8.33-.18-10.71,4.94Z" transform="translate(-913.99 -493.93)"/><path d="M957.06,564.15V557.3h5.85C964.85,564,964.08,565,957.06,564.15Z" transform="translate(-913.99 -493.93)"/></svg>